<?xml version="1.0" encoding="UTF-8"?>
<svg version="1.1" xmlns="http://www.w3.org/2000/svg" width="161" height="160">
<path d="M0 0 C1.65334351 0.00241699 1.65334351 0.00241699 3.34008789 0.00488281 C12.11406804 0.1361932 19.59335996 1.3482077 27.875 4.375 C28.76703125 4.66375 29.6590625 4.9525 30.578125 5.25 C50.23521391 12.17325144 64.30577719 28.34360958 74.015625 46.078125 C79.16327606 57.15199382 80.59540904 68.14813168 80.4375 80.25 C80.43324005 80.95121979 80.4289801 81.65243958 80.42459106 82.37490845 C80.33394863 93.10327332 79.52832398 102.55000709 74.875 112.375 C74.35550781 113.51195313 73.83601562 114.64890625 73.30078125 115.8203125 C63.34432674 135.82605559 46.39946896 150.16926062 25.359375 157.3671875 C3.08842437 163.80878533 -19.03625994 161.45062049 -39.38671875 150.51953125 C-58.62458979 139.73829749 -71.2631352 123.12482772 -77.5 101.9375 C-83.03648836 81.54877982 -80.37342219 60.45005006 -70.75 41.6953125 C-59.09745825 21.36669346 -41.61427995 8.13964464 -19.12744141 1.81298828 C-12.76003488 0.20427457 -6.54691895 -0.00997322 0 0 Z " fill="#2993E7" transform="translate(81.125,-0.375)"/>
<path d="M0 0 C1.430873 1.04328959 2.84725033 2.10669287 4.25 3.1875 C9.10003116 6.65302139 13.11789743 6.30160047 18.91015625 6.03125 C24.5441769 5.97426875 28.36127094 7.65922168 32.75 11.25 C37.4100687 16.94563952 39.11684303 20.07909652 39.3125 27.4375 C39.62009374 34.48787221 42.13671308 37.23994323 47 42 C49.58035686 46.37538772 49.62918671 51.04717128 49 56 C47.09153426 63.22318044 43.07710927 67.80417221 37 72 C33.694119 73.88511453 30.79972982 74.98367898 26.9375 75.0625 C22.57247277 76.4555938 21.69498923 79.54478105 19.546875 83.42578125 C15.08561921 90.84994178 8.1827276 93.90095249 0 96 C-7.1190243 97.16042704 -14.56188771 95.21357915 -20.56640625 91.34765625 C-23.9765131 88.75860242 -26.61167717 86.58248425 -29 83 C-31.08348156 82.38116748 -31.08348156 82.38116748 -33.5 82.125 C-42.6093993 80.50818021 -50.33194011 76.41207832 -56 69 C-60.72592944 61.97421172 -61.08775311 54.24402354 -60 46 C-58.27901568 40.76089728 -55.64736793 37.33730418 -51.3125 34 C-47.71093623 31.17463532 -47.15026075 28.84341299 -46.4375 24.42578125 C-44.80843503 15.39319779 -40.3644479 7.73137703 -32.79296875 2.46484375 C-22.40227456 -3.60672031 -11.07030907 -5.36801843 0 0 Z " fill="#2B94E7" transform="translate(88,34)"/>
<path d="M0 0 C1.430873 1.04328959 2.84725033 2.10669287 4.25 3.1875 C9.10003116 6.65302139 13.11789743 6.30160047 18.91015625 6.03125 C24.5441769 5.97426875 28.36127094 7.65922168 32.75 11.25 C37.4100687 16.94563952 39.11684303 20.07909652 39.3125 27.4375 C39.62009374 34.48787221 42.13671308 37.23994323 47 42 C49.58035686 46.37538772 49.62918671 51.04717128 49 56 C47.09153426 63.22318044 43.07710927 67.80417221 37 72 C33.694119 73.88511453 30.79972982 74.98367898 26.9375 75.0625 C22.57247277 76.4555938 21.69498923 79.54478105 19.546875 83.42578125 C15.08561921 90.84994178 8.1827276 93.90095249 0 96 C-7.1190243 97.16042704 -14.56188771 95.21357915 -20.56640625 91.34765625 C-23.9765131 88.75860242 -26.61167717 86.58248425 -29 83 C-31.08348156 82.38116748 -31.08348156 82.38116748 -33.5 82.125 C-42.6093993 80.50818021 -50.33194011 76.41207832 -56 69 C-60.72592944 61.97421172 -61.08775311 54.24402354 -60 46 C-58.27901568 40.76089728 -55.64736793 37.33730418 -51.3125 34 C-47.71093623 31.17463532 -47.15026075 28.84341299 -46.4375 24.42578125 C-44.80843503 15.39319779 -40.3644479 7.73137703 -32.79296875 2.46484375 C-22.40227456 -3.60672031 -11.07030907 -5.36801843 0 0 Z M-28 10 C-28.886875 10.556875 -29.77375 11.11375 -30.6875 11.6875 C-35.99219305 16.99219305 -38.07465407 22.19619472 -38.75 29.625 C-39.42665224 35.37989378 -39.42665224 35.37989378 -42.01171875 38.17578125 C-43.6041731 39.33229802 -45.22274247 40.45384111 -46.8671875 41.53515625 C-49.90437702 43.62113806 -50.9475875 45.49195833 -52 49 C-52.96367791 54.93714207 -52.09062091 59.22035813 -48.62109375 64.14453125 C-44.36206964 69.01931789 -39.35345161 72.54400067 -33 74 C-31.700625 74.04125 -30.40125 74.0825 -29.0625 74.125 C-26.29843822 74.40297965 -25.25381616 74.75840256 -23.21484375 76.69921875 C-22.05933913 78.12320053 -20.91102308 79.55304209 -19.76953125 80.98828125 C-16.39189663 84.82819699 -12.60280479 86.59568081 -7.5859375 87.375 C-0.82923531 87.70969732 5.41987206 86.17836795 10.56640625 81.609375 C13.38809546 78.40865291 15.14109136 74.80231312 17 71 C19.33922363 68.05457513 21.20624516 67.53525906 24.875 67 C30.9834794 65.90065102 35.10388641 63.89420686 39.04296875 58.8671875 C41.00440523 55.04038491 40.83137415 51.13723197 40 47 C38.38297832 43.70447293 36.33579785 40.99138732 33.37890625 38.796875 C31.18932203 35.94359245 31.46537363 32.65540708 31.25 29.1875 C30.68385703 22.56358475 30.68385703 22.56358475 27.375 17 C23.04532791 14.0863213 18.03954118 14.90585566 13.06274414 15.17919922 C6.8979062 15.37540849 3.68540919 13.67337277 -0.88671875 9.7265625 C-5.85023537 5.6713419 -10.80466768 5.57326824 -16.9921875 5.6796875 C-21.33884035 6.1425778 -24.40655621 7.59037764 -28 10 Z " fill="#F7FBFE" transform="translate(88,34)"/>
<path d="M0 0 C3.375 1.8125 3.375 1.8125 6 4 C6.8971875 4.61875 6.8971875 4.61875 7.8125 5.25 C9.8302195 8.22348137 10.10323903 11.49675542 10 15 C8.57368484 18.60773834 7.02279571 19.9823217 3.9375 22.375 C0.32401421 25.60407241 -0.09082714 27.36321842 -1 32 C-2.65614657 32.38218767 -4.32457024 32.71395102 -6 33 C-8.19446522 30.80553478 -7.56261165 26.78936805 -7.56640625 23.87890625 C-6.7012255 19.48140133 -4.23903232 17.73101875 -0.75 15.14453125 C-0.1725 14.76683594 0.405 14.38914062 1 14 C0.67 12.35 0.34 10.7 0 9 C-4.56142314 7.80897935 -4.56142314 7.80897935 -8.8125 9.125 C-10.2091667 11.3302632 -11.13587557 13.54056893 -12 16 C-13.66611905 16.042721 -15.33382885 16.04063832 -17 16 C-17.33 15.67 -17.66 15.34 -18 15 C-17.76416819 7.9250457 -17.76416819 7.9250457 -14.625 4.125 C-9.55881794 0.023805 -6.39648351 -0.90753527 0 0 Z " fill="#F6FAFE" transform="translate(88,60)"/>
<path d="M0 0 C4.55555556 0.55555556 4.55555556 0.55555556 6 2 C6.125 4.5 6.125 4.5 6 7 C5 8 5 8 1.9375 8.0625 C0.968125 8.041875 -0.00125 8.02125 -1 8 C-1.625 5.125 -1.625 5.125 -2 2 C-1.34 1.34 -0.68 0.68 0 0 Z " fill="#F9FCFE" transform="translate(82,97)"/>
</svg>
